<svg width="45" height="46" viewBox="0 0 45 46" fill="none" xmlns="http://www.w3.org/2000/svg">
<g clip-path="url(#clip0_362_210)">
<path d="M42.0358 4.50845L30.9972 4.5085V1.71972C30.9972 0.946615 30.3802 0.320435 29.6186 0.320435C28.8569 0.320435 28.2399 0.946615 28.2399 1.71972V4.5078H17.211V1.71972C17.211 0.946615 16.5941 0.320435 15.8324 0.320435C15.0707 0.320435 14.4538 0.946615 14.4538 1.71972V4.5078H3.43448C1.9118 4.5078 0.677246 5.76086 0.677246 7.30637V42.2885C0.677246 43.834 1.9118 45.0871 3.43448 45.0871H42.0358C43.5585 45.0871 44.793 43.834 44.793 42.2885V7.30637C44.793 5.76151 43.5585 4.50845 42.0358 4.50845ZM42.0358 42.2885H3.43448V7.30637H14.4538V8.71615C14.4538 9.48921 15.0707 10.1154 15.8324 10.1154C16.5941 10.1154 17.211 9.48921 17.211 8.71615V7.30707H28.2399V8.71685C28.2399 9.48995 28.8569 10.1161 29.6186 10.1161C30.3802 10.1161 30.9972 9.48995 30.9972 8.71685V7.30707H42.0358V42.2885ZM32.3854 22.6992H35.1427C35.9037 22.6992 36.5213 22.0723 36.5213 21.2999V18.5013C36.5213 17.7289 35.9037 17.102 35.1427 17.102H32.3854C31.6244 17.102 31.0068 17.7289 31.0068 18.5013V21.2999C31.0068 22.0723 31.6244 22.6992 32.3854 22.6992ZM32.3854 33.8927H35.1427C35.9037 33.8927 36.5213 33.2666 36.5213 32.4935V29.6949C36.5213 28.9225 35.9037 28.2956 35.1427 28.2956H32.3854C31.6244 28.2956 31.0068 28.9225 31.0068 29.6949V32.4935C31.0068 33.2673 31.6244 33.8927 32.3854 33.8927ZM24.1137 28.2956H21.3565C20.5955 28.2956 19.9779 28.9225 19.9779 29.6949V32.4935C19.9779 33.2666 20.5955 33.8927 21.3565 33.8927H24.1137C24.8747 33.8927 25.4924 33.2666 25.4924 32.4935V29.6949C25.4924 28.9232 24.8747 28.2956 24.1137 28.2956ZM24.1137 17.102H21.3565C20.5955 17.102 19.9779 17.7289 19.9779 18.5013V21.2999C19.9779 22.0723 20.5955 22.6992 21.3565 22.6992H24.1137C24.8747 22.6992 25.4924 22.0723 25.4924 21.2999V18.5013C25.4924 17.7282 24.8747 17.102 24.1137 17.102ZM13.0848 17.102H10.3276C9.56657 17.102 8.94895 17.7289 8.94895 18.5013V21.2999C8.94895 22.0723 9.56657 22.6992 10.3276 22.6992H13.0848C13.8458 22.6992 14.4634 22.0723 14.4634 21.2999V18.5013C14.4634 17.7282 13.8458 17.102 13.0848 17.102ZM13.0848 28.2956H10.3276C9.56657 28.2956 8.94895 28.9225 8.94895 29.6949V32.4935C8.94895 33.2666 9.56657 33.8927 10.3276 33.8927H13.0848C13.8458 33.8927 14.4634 33.2666 14.4634 32.4935V29.6949C14.4634 28.9232 13.8458 28.2956 13.0848 28.2956Z" fill="#282A04"/>
<path d="M42.0358 4.50845L30.9972 4.5085V1.71972C30.9972 0.946615 30.3802 0.320435 29.6186 0.320435C28.8569 0.320435 28.2399 0.946615 28.2399 1.71972V4.5078H17.211V1.71972C17.211 0.946615 16.5941 0.320435 15.8324 0.320435C15.0707 0.320435 14.4538 0.946615 14.4538 1.71972V4.5078H3.43448C1.9118 4.5078 0.677246 5.76086 0.677246 7.30637V42.2885C0.677246 43.834 1.9118 45.0871 3.43448 45.0871H42.0358C43.5585 45.0871 44.793 43.834 44.793 42.2885V7.30637C44.793 5.76151 43.5585 4.50845 42.0358 4.50845ZM42.0358 42.2885H3.43448V7.30637H14.4538V8.71615C14.4538 9.48921 15.0707 10.1154 15.8324 10.1154C16.5941 10.1154 17.211 9.48921 17.211 8.71615V7.30707H28.2399V8.71685C28.2399 9.48995 28.8569 10.1161 29.6186 10.1161C30.3802 10.1161 30.9972 9.48995 30.9972 8.71685V7.30707H42.0358V42.2885ZM32.3854 22.6992H35.1427C35.9037 22.6992 36.5213 22.0723 36.5213 21.2999V18.5013C36.5213 17.7289 35.9037 17.102 35.1427 17.102H32.3854C31.6244 17.102 31.0068 17.7289 31.0068 18.5013V21.2999C31.0068 22.0723 31.6244 22.6992 32.3854 22.6992ZM32.3854 33.8927H35.1427C35.9037 33.8927 36.5213 33.2666 36.5213 32.4935V29.6949C36.5213 28.9225 35.9037 28.2956 35.1427 28.2956H32.3854C31.6244 28.2956 31.0068 28.9225 31.0068 29.6949V32.4935C31.0068 33.2673 31.6244 33.8927 32.3854 33.8927ZM24.1137 28.2956H21.3565C20.5955 28.2956 19.9779 28.9225 19.9779 29.6949V32.4935C19.9779 33.2666 20.5955 33.8927 21.3565 33.8927H24.1137C24.8747 33.8927 25.4924 33.2666 25.4924 32.4935V29.6949C25.4924 28.9232 24.8747 28.2956 24.1137 28.2956ZM24.1137 17.102H21.3565C20.5955 17.102 19.9779 17.7289 19.9779 18.5013V21.2999C19.9779 22.0723 20.5955 22.6992 21.3565 22.6992H24.1137C24.8747 22.6992 25.4924 22.0723 25.4924 21.2999V18.5013C25.4924 17.7282 24.8747 17.102 24.1137 17.102ZM13.0848 17.102H10.3276C9.56657 17.102 8.94895 17.7289 8.94895 18.5013V21.2999C8.94895 22.0723 9.56657 22.6992 10.3276 22.6992H13.0848C13.8458 22.6992 14.4634 22.0723 14.4634 21.2999V18.5013C14.4634 17.7282 13.8458 17.102 13.0848 17.102ZM13.0848 28.2956H10.3276C9.56657 28.2956 8.94895 28.9225 8.94895 29.6949V32.4935C8.94895 33.2666 9.56657 33.8927 10.3276 33.8927H13.0848C13.8458 33.8927 14.4634 33.2666 14.4634 32.4935V29.6949C14.4634 28.9232 13.8458 28.2956 13.0848 28.2956Z" fill="black" fill-opacity="0.2"/>
<path d="M42.0358 4.50845L30.9972 4.5085V1.71972C30.9972 0.946615 30.3802 0.320435 29.6186 0.320435C28.8569 0.320435 28.2399 0.946615 28.2399 1.71972V4.5078H17.211V1.71972C17.211 0.946615 16.5941 0.320435 15.8324 0.320435C15.0707 0.320435 14.4538 0.946615 14.4538 1.71972V4.5078H3.43448C1.9118 4.5078 0.677246 5.76086 0.677246 7.30637V42.2885C0.677246 43.834 1.9118 45.0871 3.43448 45.0871H42.0358C43.5585 45.0871 44.793 43.834 44.793 42.2885V7.30637C44.793 5.76151 43.5585 4.50845 42.0358 4.50845ZM42.0358 42.2885H3.43448V7.30637H14.4538V8.71615C14.4538 9.48921 15.0707 10.1154 15.8324 10.1154C16.5941 10.1154 17.211 9.48921 17.211 8.71615V7.30707H28.2399V8.71685C28.2399 9.48995 28.8569 10.1161 29.6186 10.1161C30.3802 10.1161 30.9972 9.48995 30.9972 8.71685V7.30707H42.0358V42.2885ZM32.3854 22.6992H35.1427C35.9037 22.6992 36.5213 22.0723 36.5213 21.2999V18.5013C36.5213 17.7289 35.9037 17.102 35.1427 17.102H32.3854C31.6244 17.102 31.0068 17.7289 31.0068 18.5013V21.2999C31.0068 22.0723 31.6244 22.6992 32.3854 22.6992ZM32.3854 33.8927H35.1427C35.9037 33.8927 36.5213 33.2666 36.5213 32.4935V29.6949C36.5213 28.9225 35.9037 28.2956 35.1427 28.2956H32.3854C31.6244 28.2956 31.0068 28.9225 31.0068 29.6949V32.4935C31.0068 33.2673 31.6244 33.8927 32.3854 33.8927ZM24.1137 28.2956H21.3565C20.5955 28.2956 19.9779 28.9225 19.9779 29.6949V32.4935C19.9779 33.2666 20.5955 33.8927 21.3565 33.8927H24.1137C24.8747 33.8927 25.4924 33.2666 25.4924 32.4935V29.6949C25.4924 28.9232 24.8747 28.2956 24.1137 28.2956ZM24.1137 17.102H21.3565C20.5955 17.102 19.9779 17.7289 19.9779 18.5013V21.2999C19.9779 22.0723 20.5955 22.6992 21.3565 22.6992H24.1137C24.8747 22.6992 25.4924 22.0723 25.4924 21.2999V18.5013C25.4924 17.7282 24.8747 17.102 24.1137 17.102ZM13.0848 17.102H10.3276C9.56657 17.102 8.94895 17.7289 8.94895 18.5013V21.2999C8.94895 22.0723 9.56657 22.6992 10.3276 22.6992H13.0848C13.8458 22.6992 14.4634 22.0723 14.4634 21.2999V18.5013C14.4634 17.7282 13.8458 17.102 13.0848 17.102ZM13.0848 28.2956H10.3276C9.56657 28.2956 8.94895 28.9225 8.94895 29.6949V32.4935C8.94895 33.2666 9.56657 33.8927 10.3276 33.8927H13.0848C13.8458 33.8927 14.4634 33.2666 14.4634 32.4935V29.6949C14.4634 28.9232 13.8458 28.2956 13.0848 28.2956Z" fill="black" fill-opacity="0.2"/>
<path d="M42.0358 4.50845L30.9972 4.5085V1.71972C30.9972 0.946615 30.3802 0.320435 29.6186 0.320435C28.8569 0.320435 28.2399 0.946615 28.2399 1.71972V4.5078H17.211V1.71972C17.211 0.946615 16.5941 0.320435 15.8324 0.320435C15.0707 0.320435 14.4538 0.946615 14.4538 1.71972V4.5078H3.43448C1.9118 4.5078 0.677246 5.76086 0.677246 7.30637V42.2885C0.677246 43.834 1.9118 45.0871 3.43448 45.0871H42.0358C43.5585 45.0871 44.793 43.834 44.793 42.2885V7.30637C44.793 5.76151 43.5585 4.50845 42.0358 4.50845ZM42.0358 42.2885H3.43448V7.30637H14.4538V8.71615C14.4538 9.48921 15.0707 10.1154 15.8324 10.1154C16.5941 10.1154 17.211 9.48921 17.211 8.71615V7.30707H28.2399V8.71685C28.2399 9.48995 28.8569 10.1161 29.6186 10.1161C30.3802 10.1161 30.9972 9.48995 30.9972 8.71685V7.30707H42.0358V42.2885ZM32.3854 22.6992H35.1427C35.9037 22.6992 36.5213 22.0723 36.5213 21.2999V18.5013C36.5213 17.7289 35.9037 17.102 35.1427 17.102H32.3854C31.6244 17.102 31.0068 17.7289 31.0068 18.5013V21.2999C31.0068 22.0723 31.6244 22.6992 32.3854 22.6992ZM32.3854 33.8927H35.1427C35.9037 33.8927 36.5213 33.2666 36.5213 32.4935V29.6949C36.5213 28.9225 35.9037 28.2956 35.1427 28.2956H32.3854C31.6244 28.2956 31.0068 28.9225 31.0068 29.6949V32.4935C31.0068 33.2673 31.6244 33.8927 32.3854 33.8927ZM24.1137 28.2956H21.3565C20.5955 28.2956 19.9779 28.9225 19.9779 29.6949V32.4935C19.9779 33.2666 20.5955 33.8927 21.3565 33.8927H24.1137C24.8747 33.8927 25.4924 33.2666 25.4924 32.4935V29.6949C25.4924 28.9232 24.8747 28.2956 24.1137 28.2956ZM24.1137 17.102H21.3565C20.5955 17.102 19.9779 17.7289 19.9779 18.5013V21.2999C19.9779 22.0723 20.5955 22.6992 21.3565 22.6992H24.1137C24.8747 22.6992 25.4924 22.0723 25.4924 21.2999V18.5013C25.4924 17.7282 24.8747 17.102 24.1137 17.102ZM13.0848 17.102H10.3276C9.56657 17.102 8.94895 17.7289 8.94895 18.5013V21.2999C8.94895 22.0723 9.56657 22.6992 10.3276 22.6992H13.0848C13.8458 22.6992 14.4634 22.0723 14.4634 21.2999V18.5013C14.4634 17.7282 13.8458 17.102 13.0848 17.102ZM13.0848 28.2956H10.3276C9.56657 28.2956 8.94895 28.9225 8.94895 29.6949V32.4935C8.94895 33.2666 9.56657 33.8927 10.3276 33.8927H13.0848C13.8458 33.8927 14.4634 33.2666 14.4634 32.4935V29.6949C14.4634 28.9232 13.8458 28.2956 13.0848 28.2956Z" fill="black" fill-opacity="0.2"/>
<path d="M42.0358 4.50845L30.9972 4.5085V1.71972C30.9972 0.946615 30.3802 0.320435 29.6186 0.320435C28.8569 0.320435 28.2399 0.946615 28.2399 1.71972V4.5078H17.211V1.71972C17.211 0.946615 16.5941 0.320435 15.8324 0.320435C15.0707 0.320435 14.4538 0.946615 14.4538 1.71972V4.5078H3.43448C1.9118 4.5078 0.677246 5.76086 0.677246 7.30637V42.2885C0.677246 43.834 1.9118 45.0871 3.43448 45.0871H42.0358C43.5585 45.0871 44.793 43.834 44.793 42.2885V7.30637C44.793 5.76151 43.5585 4.50845 42.0358 4.50845ZM42.0358 42.2885H3.43448V7.30637H14.4538V8.71615C14.4538 9.48921 15.0707 10.1154 15.8324 10.1154C16.5941 10.1154 17.211 9.48921 17.211 8.71615V7.30707H28.2399V8.71685C28.2399 9.48995 28.8569 10.1161 29.6186 10.1161C30.3802 10.1161 30.9972 9.48995 30.9972 8.71685V7.30707H42.0358V42.2885ZM32.3854 22.6992H35.1427C35.9037 22.6992 36.5213 22.0723 36.5213 21.2999V18.5013C36.5213 17.7289 35.9037 17.102 35.1427 17.102H32.3854C31.6244 17.102 31.0068 17.7289 31.0068 18.5013V21.2999C31.0068 22.0723 31.6244 22.6992 32.3854 22.6992ZM32.3854 33.8927H35.1427C35.9037 33.8927 36.5213 33.2666 36.5213 32.4935V29.6949C36.5213 28.9225 35.9037 28.2956 35.1427 28.2956H32.3854C31.6244 28.2956 31.0068 28.9225 31.0068 29.6949V32.4935C31.0068 33.2673 31.6244 33.8927 32.3854 33.8927ZM24.1137 28.2956H21.3565C20.5955 28.2956 19.9779 28.9225 19.9779 29.6949V32.4935C19.9779 33.2666 20.5955 33.8927 21.3565 33.8927H24.1137C24.8747 33.8927 25.4924 33.2666 25.4924 32.4935V29.6949C25.4924 28.9232 24.8747 28.2956 24.1137 28.2956ZM24.1137 17.102H21.3565C20.5955 17.102 19.9779 17.7289 19.9779 18.5013V21.2999C19.9779 22.0723 20.5955 22.6992 21.3565 22.6992H24.1137C24.8747 22.6992 25.4924 22.0723 25.4924 21.2999V18.5013C25.4924 17.7282 24.8747 17.102 24.1137 17.102ZM13.0848 17.102H10.3276C9.56657 17.102 8.94895 17.7289 8.94895 18.5013V21.2999C8.94895 22.0723 9.56657 22.6992 10.3276 22.6992H13.0848C13.8458 22.6992 14.4634 22.0723 14.4634 21.2999V18.5013C14.4634 17.7282 13.8458 17.102 13.0848 17.102ZM13.0848 28.2956H10.3276C9.56657 28.2956 8.94895 28.9225 8.94895 29.6949V32.4935C8.94895 33.2666 9.56657 33.8927 10.3276 33.8927H13.0848C13.8458 33.8927 14.4634 33.2666 14.4634 32.4935V29.6949C14.4634 28.9232 13.8458 28.2956 13.0848 28.2956Z" fill="black" fill-opacity="0.2"/>
</g>
<defs>
<clipPath id="clip0_362_210">
<rect width="44.1158" height="44.7771" fill="white" transform="translate(0.677246 0.314941)"/>
</clipPath>
</defs>
</svg>
