<svg width="45" height="46" viewBox="0 0 45 46" fill="none" xmlns="http://www.w3.org/2000/svg">
<path d="M41.4259 37.239H7.22559V3.82746C7.22559 3.59187 7.04663 3.39911 6.82791 3.39911H4.04416C3.82544 3.39911 3.64648 3.59187 3.64648 3.82746V40.6658C3.64648 40.9014 3.82544 41.0942 4.04416 41.0942H41.4259C41.6446 41.0942 41.8236 40.9014 41.8236 40.6658V37.6673C41.8236 37.4317 41.6446 37.239 41.4259 37.239ZM11.6 32.9555H14.3838C14.6025 32.9555 14.7815 32.7627 14.7815 32.5271V24.8167C14.7815 24.5812 14.6025 24.3884 14.3838 24.3884H11.6C11.3813 24.3884 11.2024 24.5812 11.2024 24.8167V32.5271C11.2024 32.7627 11.3813 32.9555 11.6 32.9555ZM19.1559 32.9555H21.9397C22.1584 32.9555 22.3374 32.7627 22.3374 32.5271V15.393C22.3374 15.1574 22.1584 14.9646 21.9397 14.9646H19.1559C18.9372 14.9646 18.7583 15.1574 18.7583 15.393V32.5271C18.7583 32.7627 18.9372 32.9555 19.1559 32.9555ZM26.7118 32.9555H29.4956C29.7143 32.9555 29.8932 32.7627 29.8932 32.5271V19.5694C29.8932 19.3338 29.7143 19.1411 29.4956 19.1411H26.7118C26.4931 19.1411 26.3141 19.3338 26.3141 19.5694V32.5271C26.3141 32.7627 26.4931 32.9555 26.7118 32.9555ZM34.2677 32.9555H37.0514C37.2702 32.9555 37.4491 32.7627 37.4491 32.5271V11.1095C37.4491 10.8739 37.2702 10.6811 37.0514 10.6811H34.2677C34.049 10.6811 33.87 10.8739 33.87 11.1095V32.5271C33.87 32.7627 34.049 32.9555 34.2677 32.9555Z" fill="#282A04"/>
<path d="M41.4259 37.239H7.22559V3.82746C7.22559 3.59187 7.04663 3.39911 6.82791 3.39911H4.04416C3.82544 3.39911 3.64648 3.59187 3.64648 3.82746V40.6658C3.64648 40.9014 3.82544 41.0942 4.04416 41.0942H41.4259C41.6446 41.0942 41.8236 40.9014 41.8236 40.6658V37.6673C41.8236 37.4317 41.6446 37.239 41.4259 37.239ZM11.6 32.9555H14.3838C14.6025 32.9555 14.7815 32.7627 14.7815 32.5271V24.8167C14.7815 24.5812 14.6025 24.3884 14.3838 24.3884H11.6C11.3813 24.3884 11.2024 24.5812 11.2024 24.8167V32.5271C11.2024 32.7627 11.3813 32.9555 11.6 32.9555ZM19.1559 32.9555H21.9397C22.1584 32.9555 22.3374 32.7627 22.3374 32.5271V15.393C22.3374 15.1574 22.1584 14.9646 21.9397 14.9646H19.1559C18.9372 14.9646 18.7583 15.1574 18.7583 15.393V32.5271C18.7583 32.7627 18.9372 32.9555 19.1559 32.9555ZM26.7118 32.9555H29.4956C29.7143 32.9555 29.8932 32.7627 29.8932 32.5271V19.5694C29.8932 19.3338 29.7143 19.1411 29.4956 19.1411H26.7118C26.4931 19.1411 26.3141 19.3338 26.3141 19.5694V32.5271C26.3141 32.7627 26.4931 32.9555 26.7118 32.9555ZM34.2677 32.9555H37.0514C37.2702 32.9555 37.4491 32.7627 37.4491 32.5271V11.1095C37.4491 10.8739 37.2702 10.6811 37.0514 10.6811H34.2677C34.049 10.6811 33.87 10.8739 33.87 11.1095V32.5271C33.87 32.7627 34.049 32.9555 34.2677 32.9555Z" fill="black" fill-opacity="0.2"/>
<path d="M41.4259 37.239H7.22559V3.82746C7.22559 3.59187 7.04663 3.39911 6.82791 3.39911H4.04416C3.82544 3.39911 3.64648 3.59187 3.64648 3.82746V40.6658C3.64648 40.9014 3.82544 41.0942 4.04416 41.0942H41.4259C41.6446 41.0942 41.8236 40.9014 41.8236 40.6658V37.6673C41.8236 37.4317 41.6446 37.239 41.4259 37.239ZM11.6 32.9555H14.3838C14.6025 32.9555 14.7815 32.7627 14.7815 32.5271V24.8167C14.7815 24.5812 14.6025 24.3884 14.3838 24.3884H11.6C11.3813 24.3884 11.2024 24.5812 11.2024 24.8167V32.5271C11.2024 32.7627 11.3813 32.9555 11.6 32.9555ZM19.1559 32.9555H21.9397C22.1584 32.9555 22.3374 32.7627 22.3374 32.5271V15.393C22.3374 15.1574 22.1584 14.9646 21.9397 14.9646H19.1559C18.9372 14.9646 18.7583 15.1574 18.7583 15.393V32.5271C18.7583 32.7627 18.9372 32.9555 19.1559 32.9555ZM26.7118 32.9555H29.4956C29.7143 32.9555 29.8932 32.7627 29.8932 32.5271V19.5694C29.8932 19.3338 29.7143 19.1411 29.4956 19.1411H26.7118C26.4931 19.1411 26.3141 19.3338 26.3141 19.5694V32.5271C26.3141 32.7627 26.4931 32.9555 26.7118 32.9555ZM34.2677 32.9555H37.0514C37.2702 32.9555 37.4491 32.7627 37.4491 32.5271V11.1095C37.4491 10.8739 37.2702 10.6811 37.0514 10.6811H34.2677C34.049 10.6811 33.87 10.8739 33.87 11.1095V32.5271C33.87 32.7627 34.049 32.9555 34.2677 32.9555Z" fill="black" fill-opacity="0.2"/>
<path d="M41.4259 37.239H7.22559V3.82746C7.22559 3.59187 7.04663 3.39911 6.82791 3.39911H4.04416C3.82544 3.39911 3.64648 3.59187 3.64648 3.82746V40.6658C3.64648 40.9014 3.82544 41.0942 4.04416 41.0942H41.4259C41.6446 41.0942 41.8236 40.9014 41.8236 40.6658V37.6673C41.8236 37.4317 41.6446 37.239 41.4259 37.239ZM11.6 32.9555H14.3838C14.6025 32.9555 14.7815 32.7627 14.7815 32.5271V24.8167C14.7815 24.5812 14.6025 24.3884 14.3838 24.3884H11.6C11.3813 24.3884 11.2024 24.5812 11.2024 24.8167V32.5271C11.2024 32.7627 11.3813 32.9555 11.6 32.9555ZM19.1559 32.9555H21.9397C22.1584 32.9555 22.3374 32.7627 22.3374 32.5271V15.393C22.3374 15.1574 22.1584 14.9646 21.9397 14.9646H19.1559C18.9372 14.9646 18.7583 15.1574 18.7583 15.393V32.5271C18.7583 32.7627 18.9372 32.9555 19.1559 32.9555ZM26.7118 32.9555H29.4956C29.7143 32.9555 29.8932 32.7627 29.8932 32.5271V19.5694C29.8932 19.3338 29.7143 19.1411 29.4956 19.1411H26.7118C26.4931 19.1411 26.3141 19.3338 26.3141 19.5694V32.5271C26.3141 32.7627 26.4931 32.9555 26.7118 32.9555ZM34.2677 32.9555H37.0514C37.2702 32.9555 37.4491 32.7627 37.4491 32.5271V11.1095C37.4491 10.8739 37.2702 10.6811 37.0514 10.6811H34.2677C34.049 10.6811 33.87 10.8739 33.87 11.1095V32.5271C33.87 32.7627 34.049 32.9555 34.2677 32.9555Z" fill="black" fill-opacity="0.2"/>
<path d="M41.4259 37.239H7.22559V3.82746C7.22559 3.59187 7.04663 3.39911 6.82791 3.39911H4.04416C3.82544 3.39911 3.64648 3.59187 3.64648 3.82746V40.6658C3.64648 40.9014 3.82544 41.0942 4.04416 41.0942H41.4259C41.6446 41.0942 41.8236 40.9014 41.8236 40.6658V37.6673C41.8236 37.4317 41.6446 37.239 41.4259 37.239ZM11.6 32.9555H14.3838C14.6025 32.9555 14.7815 32.7627 14.7815 32.5271V24.8167C14.7815 24.5812 14.6025 24.3884 14.3838 24.3884H11.6C11.3813 24.3884 11.2024 24.5812 11.2024 24.8167V32.5271C11.2024 32.7627 11.3813 32.9555 11.6 32.9555ZM19.1559 32.9555H21.9397C22.1584 32.9555 22.3374 32.7627 22.3374 32.5271V15.393C22.3374 15.1574 22.1584 14.9646 21.9397 14.9646H19.1559C18.9372 14.9646 18.7583 15.1574 18.7583 15.393V32.5271C18.7583 32.7627 18.9372 32.9555 19.1559 32.9555ZM26.7118 32.9555H29.4956C29.7143 32.9555 29.8932 32.7627 29.8932 32.5271V19.5694C29.8932 19.3338 29.7143 19.1411 29.4956 19.1411H26.7118C26.4931 19.1411 26.3141 19.3338 26.3141 19.5694V32.5271C26.3141 32.7627 26.4931 32.9555 26.7118 32.9555ZM34.2677 32.9555H37.0514C37.2702 32.9555 37.4491 32.7627 37.4491 32.5271V11.1095C37.4491 10.8739 37.2702 10.6811 37.0514 10.6811H34.2677C34.049 10.6811 33.87 10.8739 33.87 11.1095V32.5271C33.87 32.7627 34.049 32.9555 34.2677 32.9555Z" fill="black" fill-opacity="0.2"/>
</svg>
