<svg width="45" height="46" viewBox="0 0 45 46" fill="none" xmlns="http://www.w3.org/2000/svg">
<g clip-path="url(#clip0_362_202)">
<path d="M21.163 34.849C21.163 36.6459 21.1709 38.4443 21.1615 40.2412C21.1457 43.027 19.1072 45.0762 16.3315 45.0842C12.7381 45.0937 9.1432 45.0921 5.54986 45.0842C2.72685 45.0778 0.689943 43.0317 0.683642 40.1967C0.675765 36.576 0.675765 32.9537 0.683642 29.333C0.689943 26.4965 2.72685 24.4567 5.55459 24.4504C9.12273 24.4424 12.6893 24.444 16.2574 24.4504C19.1356 24.4551 21.1536 26.4853 21.163 29.3775C21.1693 31.2013 21.163 33.0252 21.163 34.849ZM10.9517 27.6266C9.19362 27.6266 7.43396 27.6203 5.67589 27.6282C4.43767 27.6346 3.84062 28.2314 3.83747 29.4791C3.83117 32.9966 3.83117 36.5141 3.83747 40.0333C3.83904 41.3158 4.43925 41.9063 5.73417 41.9079C9.19992 41.9127 12.6641 41.9127 16.1298 41.9079C17.4169 41.9063 18.0076 41.3111 18.0092 40.0158C18.0139 36.5237 18.0139 33.0331 18.0092 29.541C18.0076 28.206 17.42 27.6298 16.0715 27.6266C14.3654 27.6219 12.6594 27.6266 10.9533 27.6266H10.9517Z" fill="#282A04"/>
<path d="M21.163 34.849C21.163 36.6459 21.1709 38.4443 21.1615 40.2412C21.1457 43.027 19.1072 45.0762 16.3315 45.0842C12.7381 45.0937 9.1432 45.0921 5.54986 45.0842C2.72685 45.0778 0.689943 43.0317 0.683642 40.1967C0.675765 36.576 0.675765 32.9537 0.683642 29.333C0.689943 26.4965 2.72685 24.4567 5.55459 24.4504C9.12273 24.4424 12.6893 24.444 16.2574 24.4504C19.1356 24.4551 21.1536 26.4853 21.163 29.3775C21.1693 31.2013 21.163 33.0252 21.163 34.849ZM10.9517 27.6266C9.19362 27.6266 7.43396 27.6203 5.67589 27.6282C4.43767 27.6346 3.84062 28.2314 3.83747 29.4791C3.83117 32.9966 3.83117 36.5141 3.83747 40.0333C3.83904 41.3158 4.43925 41.9063 5.73417 41.9079C9.19992 41.9127 12.6641 41.9127 16.1298 41.9079C17.4169 41.9063 18.0076 41.3111 18.0092 40.0158C18.0139 36.5237 18.0139 33.0331 18.0092 29.541C18.0076 28.206 17.42 27.6298 16.0715 27.6266C14.3654 27.6219 12.6594 27.6266 10.9533 27.6266H10.9517Z" fill="black" fill-opacity="0.2"/>
<path d="M21.163 34.849C21.163 36.6459 21.1709 38.4443 21.1615 40.2412C21.1457 43.027 19.1072 45.0762 16.3315 45.0842C12.7381 45.0937 9.1432 45.0921 5.54986 45.0842C2.72685 45.0778 0.689943 43.0317 0.683642 40.1967C0.675765 36.576 0.675765 32.9537 0.683642 29.333C0.689943 26.4965 2.72685 24.4567 5.55459 24.4504C9.12273 24.4424 12.6893 24.444 16.2574 24.4504C19.1356 24.4551 21.1536 26.4853 21.163 29.3775C21.1693 31.2013 21.163 33.0252 21.163 34.849ZM10.9517 27.6266C9.19362 27.6266 7.43396 27.6203 5.67589 27.6282C4.43767 27.6346 3.84062 28.2314 3.83747 29.4791C3.83117 32.9966 3.83117 36.5141 3.83747 40.0333C3.83904 41.3158 4.43925 41.9063 5.73417 41.9079C9.19992 41.9127 12.6641 41.9127 16.1298 41.9079C17.4169 41.9063 18.0076 41.3111 18.0092 40.0158C18.0139 36.5237 18.0139 33.0331 18.0092 29.541C18.0076 28.206 17.42 27.6298 16.0715 27.6266C14.3654 27.6219 12.6594 27.6266 10.9533 27.6266H10.9517Z" fill="black" fill-opacity="0.2"/>
<path d="M21.163 34.849C21.163 36.6459 21.1709 38.4443 21.1615 40.2412C21.1457 43.027 19.1072 45.0762 16.3315 45.0842C12.7381 45.0937 9.1432 45.0921 5.54986 45.0842C2.72685 45.0778 0.689943 43.0317 0.683642 40.1967C0.675765 36.576 0.675765 32.9537 0.683642 29.333C0.689943 26.4965 2.72685 24.4567 5.55459 24.4504C9.12273 24.4424 12.6893 24.444 16.2574 24.4504C19.1356 24.4551 21.1536 26.4853 21.163 29.3775C21.1693 31.2013 21.163 33.0252 21.163 34.849ZM10.9517 27.6266C9.19362 27.6266 7.43396 27.6203 5.67589 27.6282C4.43767 27.6346 3.84062 28.2314 3.83747 29.4791C3.83117 32.9966 3.83117 36.5141 3.83747 40.0333C3.83904 41.3158 4.43925 41.9063 5.73417 41.9079C9.19992 41.9127 12.6641 41.9127 16.1298 41.9079C17.4169 41.9063 18.0076 41.3111 18.0092 40.0158C18.0139 36.5237 18.0139 33.0331 18.0092 29.541C18.0076 28.206 17.42 27.6298 16.0715 27.6266C14.3654 27.6219 12.6594 27.6266 10.9533 27.6266H10.9517Z" fill="black" fill-opacity="0.2"/>
<path d="M21.163 34.849C21.163 36.6459 21.1709 38.4443 21.1615 40.2412C21.1457 43.027 19.1072 45.0762 16.3315 45.0842C12.7381 45.0937 9.1432 45.0921 5.54986 45.0842C2.72685 45.0778 0.689943 43.0317 0.683642 40.1967C0.675765 36.576 0.675765 32.9537 0.683642 29.333C0.689943 26.4965 2.72685 24.4567 5.55459 24.4504C9.12273 24.4424 12.6893 24.444 16.2574 24.4504C19.1356 24.4551 21.1536 26.4853 21.163 29.3775C21.1693 31.2013 21.163 33.0252 21.163 34.849ZM10.9517 27.6266C9.19362 27.6266 7.43396 27.6203 5.67589 27.6282C4.43767 27.6346 3.84062 28.2314 3.83747 29.4791C3.83117 32.9966 3.83117 36.5141 3.83747 40.0333C3.83904 41.3158 4.43925 41.9063 5.73417 41.9079C9.19992 41.9127 12.6641 41.9127 16.1298 41.9079C17.4169 41.9063 18.0076 41.3111 18.0092 40.0158C18.0139 36.5237 18.0139 33.0331 18.0092 29.541C18.0076 28.206 17.42 27.6298 16.0715 27.6266C14.3654 27.6219 12.6594 27.6266 10.9533 27.6266H10.9517Z" fill="black" fill-opacity="0.2"/>
<path d="M22.6847 21.2773C20.4288 21.2773 18.1729 21.2773 15.917 21.2773C14.0597 21.2773 12.6072 20.5011 11.6825 18.882C10.742 17.2343 10.8129 15.5517 11.7991 13.9295C14.0818 10.1723 16.3581 6.41028 18.6739 2.6737C20.6289 -0.481927 24.8539 -0.469228 26.8121 2.69751C29.1105 6.41346 31.3695 10.1548 33.6474 13.885C34.6368 15.5057 34.7376 17.1819 33.816 18.8375C32.8929 20.4947 31.4199 21.282 29.5311 21.2789C27.2484 21.2741 24.9673 21.2789 22.6847 21.2789V21.2773ZM22.7398 18.0994C24.9437 18.0994 27.1476 18.0915 29.3515 18.1042C30.0825 18.1074 30.7 17.9343 31.0718 17.2391C31.4309 16.5676 31.2151 15.9787 30.8496 15.3851C28.6473 11.7929 26.4576 8.19445 24.2569 4.60072C23.3668 3.14672 22.0955 3.15148 21.2023 4.61025C19.0015 8.20397 16.8102 11.804 14.6079 15.3946C14.2424 15.9899 14.0424 16.5835 14.4 17.2502C14.7749 17.947 15.3987 18.1089 16.1265 18.1042C18.3304 18.0931 20.5343 18.0994 22.7382 18.0994H22.7398Z" fill="#282A04"/>
<path d="M22.6847 21.2773C20.4288 21.2773 18.1729 21.2773 15.917 21.2773C14.0597 21.2773 12.6072 20.5011 11.6825 18.882C10.742 17.2343 10.8129 15.5517 11.7991 13.9295C14.0818 10.1723 16.3581 6.41028 18.6739 2.6737C20.6289 -0.481927 24.8539 -0.469228 26.8121 2.69751C29.1105 6.41346 31.3695 10.1548 33.6474 13.885C34.6368 15.5057 34.7376 17.1819 33.816 18.8375C32.8929 20.4947 31.4199 21.282 29.5311 21.2789C27.2484 21.2741 24.9673 21.2789 22.6847 21.2789V21.2773ZM22.7398 18.0994C24.9437 18.0994 27.1476 18.0915 29.3515 18.1042C30.0825 18.1074 30.7 17.9343 31.0718 17.2391C31.4309 16.5676 31.2151 15.9787 30.8496 15.3851C28.6473 11.7929 26.4576 8.19445 24.2569 4.60072C23.3668 3.14672 22.0955 3.15148 21.2023 4.61025C19.0015 8.20397 16.8102 11.804 14.6079 15.3946C14.2424 15.9899 14.0424 16.5835 14.4 17.2502C14.7749 17.947 15.3987 18.1089 16.1265 18.1042C18.3304 18.0931 20.5343 18.0994 22.7382 18.0994H22.7398Z" fill="black" fill-opacity="0.2"/>
<path d="M22.6847 21.2773C20.4288 21.2773 18.1729 21.2773 15.917 21.2773C14.0597 21.2773 12.6072 20.5011 11.6825 18.882C10.742 17.2343 10.8129 15.5517 11.7991 13.9295C14.0818 10.1723 16.3581 6.41028 18.6739 2.6737C20.6289 -0.481927 24.8539 -0.469228 26.8121 2.69751C29.1105 6.41346 31.3695 10.1548 33.6474 13.885C34.6368 15.5057 34.7376 17.1819 33.816 18.8375C32.8929 20.4947 31.4199 21.282 29.5311 21.2789C27.2484 21.2741 24.9673 21.2789 22.6847 21.2789V21.2773ZM22.7398 18.0994C24.9437 18.0994 27.1476 18.0915 29.3515 18.1042C30.0825 18.1074 30.7 17.9343 31.0718 17.2391C31.4309 16.5676 31.2151 15.9787 30.8496 15.3851C28.6473 11.7929 26.4576 8.19445 24.2569 4.60072C23.3668 3.14672 22.0955 3.15148 21.2023 4.61025C19.0015 8.20397 16.8102 11.804 14.6079 15.3946C14.2424 15.9899 14.0424 16.5835 14.4 17.2502C14.7749 17.947 15.3987 18.1089 16.1265 18.1042C18.3304 18.0931 20.5343 18.0994 22.7382 18.0994H22.7398Z" fill="black" fill-opacity="0.2"/>
<path d="M22.6847 21.2773C20.4288 21.2773 18.1729 21.2773 15.917 21.2773C14.0597 21.2773 12.6072 20.5011 11.6825 18.882C10.742 17.2343 10.8129 15.5517 11.7991 13.9295C14.0818 10.1723 16.3581 6.41028 18.6739 2.6737C20.6289 -0.481927 24.8539 -0.469228 26.8121 2.69751C29.1105 6.41346 31.3695 10.1548 33.6474 13.885C34.6368 15.5057 34.7376 17.1819 33.816 18.8375C32.8929 20.4947 31.4199 21.282 29.5311 21.2789C27.2484 21.2741 24.9673 21.2789 22.6847 21.2789V21.2773ZM22.7398 18.0994C24.9437 18.0994 27.1476 18.0915 29.3515 18.1042C30.0825 18.1074 30.7 17.9343 31.0718 17.2391C31.4309 16.5676 31.2151 15.9787 30.8496 15.3851C28.6473 11.7929 26.4576 8.19445 24.2569 4.60072C23.3668 3.14672 22.0955 3.15148 21.2023 4.61025C19.0015 8.20397 16.8102 11.804 14.6079 15.3946C14.2424 15.9899 14.0424 16.5835 14.4 17.2502C14.7749 17.947 15.3987 18.1089 16.1265 18.1042C18.3304 18.0931 20.5343 18.0994 22.7382 18.0994H22.7398Z" fill="black" fill-opacity="0.2"/>
<path d="M22.6847 21.2773C20.4288 21.2773 18.1729 21.2773 15.917 21.2773C14.0597 21.2773 12.6072 20.5011 11.6825 18.882C10.742 17.2343 10.8129 15.5517 11.7991 13.9295C14.0818 10.1723 16.3581 6.41028 18.6739 2.6737C20.6289 -0.481927 24.8539 -0.469228 26.8121 2.69751C29.1105 6.41346 31.3695 10.1548 33.6474 13.885C34.6368 15.5057 34.7376 17.1819 33.816 18.8375C32.8929 20.4947 31.4199 21.282 29.5311 21.2789C27.2484 21.2741 24.9673 21.2789 22.6847 21.2789V21.2773ZM22.7398 18.0994C24.9437 18.0994 27.1476 18.0915 29.3515 18.1042C30.0825 18.1074 30.7 17.9343 31.0718 17.2391C31.4309 16.5676 31.2151 15.9787 30.8496 15.3851C28.6473 11.7929 26.4576 8.19445 24.2569 4.60072C23.3668 3.14672 22.0955 3.15148 21.2023 4.61025C19.0015 8.20397 16.8102 11.804 14.6079 15.3946C14.2424 15.9899 14.0424 16.5835 14.4 17.2502C14.7749 17.947 15.3987 18.1089 16.1265 18.1042C18.3304 18.0931 20.5343 18.0994 22.7382 18.0994H22.7398Z" fill="black" fill-opacity="0.2"/>
<path d="M24.312 34.7633C24.3136 29.0584 28.8978 24.4536 34.5769 24.4504C40.1851 24.4472 44.793 29.0854 44.793 34.7331C44.793 40.4587 40.2245 45.0842 34.5675 45.0873C28.901 45.0905 24.3104 40.4698 24.312 34.7633ZM34.5958 27.6282C30.6811 27.6108 27.4706 30.8251 27.4674 34.7649C27.4643 38.6681 30.6323 41.8825 34.5107 41.9079C38.3782 41.9349 41.6061 38.738 41.6407 34.8506C41.6754 30.9029 38.4979 27.6457 34.5974 27.6282H34.5958Z" fill="#282A04"/>
<path d="M24.312 34.7633C24.3136 29.0584 28.8978 24.4536 34.5769 24.4504C40.1851 24.4472 44.793 29.0854 44.793 34.7331C44.793 40.4587 40.2245 45.0842 34.5675 45.0873C28.901 45.0905 24.3104 40.4698 24.312 34.7633ZM34.5958 27.6282C30.6811 27.6108 27.4706 30.8251 27.4674 34.7649C27.4643 38.6681 30.6323 41.8825 34.5107 41.9079C38.3782 41.9349 41.6061 38.738 41.6407 34.8506C41.6754 30.9029 38.4979 27.6457 34.5974 27.6282H34.5958Z" fill="black" fill-opacity="0.2"/>
<path d="M24.312 34.7633C24.3136 29.0584 28.8978 24.4536 34.5769 24.4504C40.1851 24.4472 44.793 29.0854 44.793 34.7331C44.793 40.4587 40.2245 45.0842 34.5675 45.0873C28.901 45.0905 24.3104 40.4698 24.312 34.7633ZM34.5958 27.6282C30.6811 27.6108 27.4706 30.8251 27.4674 34.7649C27.4643 38.6681 30.6323 41.8825 34.5107 41.9079C38.3782 41.9349 41.6061 38.738 41.6407 34.8506C41.6754 30.9029 38.4979 27.6457 34.5974 27.6282H34.5958Z" fill="black" fill-opacity="0.2"/>
<path d="M24.312 34.7633C24.3136 29.0584 28.8978 24.4536 34.5769 24.4504C40.1851 24.4472 44.793 29.0854 44.793 34.7331C44.793 40.4587 40.2245 45.0842 34.5675 45.0873C28.901 45.0905 24.3104 40.4698 24.312 34.7633ZM34.5958 27.6282C30.6811 27.6108 27.4706 30.8251 27.4674 34.7649C27.4643 38.6681 30.6323 41.8825 34.5107 41.9079C38.3782 41.9349 41.6061 38.738 41.6407 34.8506C41.6754 30.9029 38.4979 27.6457 34.5974 27.6282H34.5958Z" fill="black" fill-opacity="0.2"/>
<path d="M24.312 34.7633C24.3136 29.0584 28.8978 24.4536 34.5769 24.4504C40.1851 24.4472 44.793 29.0854 44.793 34.7331C44.793 40.4587 40.2245 45.0842 34.5675 45.0873C28.901 45.0905 24.3104 40.4698 24.312 34.7633ZM34.5958 27.6282C30.6811 27.6108 27.4706 30.8251 27.4674 34.7649C27.4643 38.6681 30.6323 41.8825 34.5107 41.9079C38.3782 41.9349 41.6061 38.738 41.6407 34.8506C41.6754 30.9029 38.4979 27.6457 34.5974 27.6282H34.5958Z" fill="black" fill-opacity="0.2"/>
</g>
<defs>
<clipPath id="clip0_362_202">
<rect width="44.1158" height="44.7771" fill="white" transform="translate(0.677246 0.314941)"/>
</clipPath>
</defs>
</svg>
