<svg width="104" height="199" viewBox="0 0 104 199" fill="none" xmlns="http://www.w3.org/2000/svg">
<g clip-path="url(#clip0_362_561)">
<path d="M83.7796 137.684H44.0537C28.9678 137.684 17.5311 131.793 9.74976 119.997C6.13721 114.679 4.33398 108.714 4.33398 102.094V59.3907C4.33398 54.6466 6.98075 52.2715 12.2804 52.2715C17.58 52.2715 20.2268 54.6466 20.2268 59.3907V102.094C20.2268 107.992 22.5557 113.026 27.2074 117.19C31.8591 121.36 37.4766 123.446 44.0599 123.446H83.7796V59.3907C83.7796 54.6466 86.4264 52.2715 91.726 52.2715C97.0257 52.2715 99.6724 54.6466 99.6724 59.3907V166.155C99.6724 174.138 96.6039 180.875 90.4668 186.378C84.3298 191.881 76.8051 194.626 67.8991 194.626H28.1671C22.8735 194.626 20.2207 192.251 20.2207 187.507C20.2207 182.762 22.8674 180.387 28.1671 180.387H67.8868C72.3001 180.387 76.0533 179.005 79.1402 176.235C82.227 173.472 83.7735 170.109 83.7735 166.155V137.684H83.7796Z" fill="#282A04"/>
<path d="M83.7796 137.684H44.0537C28.9678 137.684 17.5311 131.793 9.74976 119.997C6.13721 114.679 4.33398 108.714 4.33398 102.094V59.3907C4.33398 54.6466 6.98075 52.2715 12.2804 52.2715C17.58 52.2715 20.2268 54.6466 20.2268 59.3907V102.094C20.2268 107.992 22.5557 113.026 27.2074 117.19C31.8591 121.36 37.4766 123.446 44.0599 123.446H83.7796V59.3907C83.7796 54.6466 86.4264 52.2715 91.726 52.2715C97.0257 52.2715 99.6724 54.6466 99.6724 59.3907V166.155C99.6724 174.138 96.6039 180.875 90.4668 186.378C84.3298 191.881 76.8051 194.626 67.8991 194.626H28.1671C22.8735 194.626 20.2207 192.251 20.2207 187.507C20.2207 182.762 22.8674 180.387 28.1671 180.387H67.8868C72.3001 180.387 76.0533 179.005 79.1402 176.235C82.227 173.472 83.7735 170.109 83.7735 166.155V137.684H83.7796Z" fill="black" fill-opacity="0.2"/>
<path d="M83.7796 137.684H44.0537C28.9678 137.684 17.5311 131.793 9.74976 119.997C6.13721 114.679 4.33398 108.714 4.33398 102.094V59.3907C4.33398 54.6466 6.98075 52.2715 12.2804 52.2715C17.58 52.2715 20.2268 54.6466 20.2268 59.3907V102.094C20.2268 107.992 22.5557 113.026 27.2074 117.19C31.8591 121.36 37.4766 123.446 44.0599 123.446H83.7796V59.3907C83.7796 54.6466 86.4264 52.2715 91.726 52.2715C97.0257 52.2715 99.6724 54.6466 99.6724 59.3907V166.155C99.6724 174.138 96.6039 180.875 90.4668 186.378C84.3298 191.881 76.8051 194.626 67.8991 194.626H28.1671C22.8735 194.626 20.2207 192.251 20.2207 187.507C20.2207 182.762 22.8674 180.387 28.1671 180.387H67.8868C72.3001 180.387 76.0533 179.005 79.1402 176.235C82.227 173.472 83.7735 170.109 83.7735 166.155V137.684H83.7796Z" fill="black" fill-opacity="0.2"/>
<path d="M83.7796 137.684H44.0537C28.9678 137.684 17.5311 131.793 9.74976 119.997C6.13721 114.679 4.33398 108.714 4.33398 102.094V59.3907C4.33398 54.6466 6.98075 52.2715 12.2804 52.2715C17.58 52.2715 20.2268 54.6466 20.2268 59.3907V102.094C20.2268 107.992 22.5557 113.026 27.2074 117.19C31.8591 121.36 37.4766 123.446 44.0599 123.446H83.7796V59.3907C83.7796 54.6466 86.4264 52.2715 91.726 52.2715C97.0257 52.2715 99.6724 54.6466 99.6724 59.3907V166.155C99.6724 174.138 96.6039 180.875 90.4668 186.378C84.3298 191.881 76.8051 194.626 67.8991 194.626H28.1671C22.8735 194.626 20.2207 192.251 20.2207 187.507C20.2207 182.762 22.8674 180.387 28.1671 180.387H67.8868C72.3001 180.387 76.0533 179.005 79.1402 176.235C82.227 173.472 83.7735 170.109 83.7735 166.155V137.684H83.7796Z" fill="black" fill-opacity="0.2"/>
<path d="M83.7796 137.684H44.0537C28.9678 137.684 17.5311 131.793 9.74976 119.997C6.13721 114.679 4.33398 108.714 4.33398 102.094V59.3907C4.33398 54.6466 6.98075 52.2715 12.2804 52.2715C17.58 52.2715 20.2268 54.6466 20.2268 59.3907V102.094C20.2268 107.992 22.5557 113.026 27.2074 117.19C31.8591 121.36 37.4766 123.446 44.0599 123.446H83.7796V59.3907C83.7796 54.6466 86.4264 52.2715 91.726 52.2715C97.0257 52.2715 99.6724 54.6466 99.6724 59.3907V166.155C99.6724 174.138 96.6039 180.875 90.4668 186.378C84.3298 191.881 76.8051 194.626 67.8991 194.626H28.1671C22.8735 194.626 20.2207 192.251 20.2207 187.507C20.2207 182.762 22.8674 180.387 28.1671 180.387H67.8868C72.3001 180.387 76.0533 179.005 79.1402 176.235C82.227 173.472 83.7735 170.109 83.7735 166.155V137.684H83.7796Z" fill="black" fill-opacity="0.2"/>
<path d="M83.7796 137.684H44.0537C28.9678 137.684 17.5311 131.793 9.74976 119.997C6.13721 114.679 4.33398 108.714 4.33398 102.094V59.3907C4.33398 54.6466 6.98075 52.2715 12.2804 52.2715C17.58 52.2715 20.2268 54.6466 20.2268 59.3907V102.094C20.2268 107.992 22.5557 113.026 27.2074 117.19C31.8591 121.36 37.4766 123.446 44.0599 123.446H83.7796V59.3907C83.7796 54.6466 86.4264 52.2715 91.726 52.2715C97.0257 52.2715 99.6724 54.6466 99.6724 59.3907V166.155C99.6724 174.138 96.6039 180.875 90.4668 186.378C84.3298 191.881 76.8051 194.626 67.8991 194.626H28.1671C22.8735 194.626 20.2207 192.251 20.2207 187.507C20.2207 182.762 22.8674 180.387 28.1671 180.387H67.8868C72.3001 180.387 76.0533 179.005 79.1402 176.235C82.227 173.472 83.7735 170.109 83.7735 166.155V137.684H83.7796Z" stroke="#282A04" stroke-width="14.17" stroke-miterlimit="10"/>
<path d="M83.7796 137.684H44.0537C28.9678 137.684 17.5311 131.793 9.74976 119.997C6.13721 114.679 4.33398 108.714 4.33398 102.094V59.3907C4.33398 54.6466 6.98075 52.2715 12.2804 52.2715C17.58 52.2715 20.2268 54.6466 20.2268 59.3907V102.094C20.2268 107.992 22.5557 113.026 27.2074 117.19C31.8591 121.36 37.4766 123.446 44.0599 123.446H83.7796V59.3907C83.7796 54.6466 86.4264 52.2715 91.726 52.2715C97.0257 52.2715 99.6724 54.6466 99.6724 59.3907V166.155C99.6724 174.138 96.6039 180.875 90.4668 186.378C84.3298 191.881 76.8051 194.626 67.8991 194.626H28.1671C22.8735 194.626 20.2207 192.251 20.2207 187.507C20.2207 182.762 22.8674 180.387 28.1671 180.387H67.8868C72.3001 180.387 76.0533 179.005 79.1402 176.235C82.227 173.472 83.7735 170.109 83.7735 166.155V137.684H83.7796Z" stroke="black" stroke-opacity="0.2" stroke-width="14.17" stroke-miterlimit="10"/>
<path d="M83.7796 137.684H44.0537C28.9678 137.684 17.5311 131.793 9.74976 119.997C6.13721 114.679 4.33398 108.714 4.33398 102.094V59.3907C4.33398 54.6466 6.98075 52.2715 12.2804 52.2715C17.58 52.2715 20.2268 54.6466 20.2268 59.3907V102.094C20.2268 107.992 22.5557 113.026 27.2074 117.19C31.8591 121.36 37.4766 123.446 44.0599 123.446H83.7796V59.3907C83.7796 54.6466 86.4264 52.2715 91.726 52.2715C97.0257 52.2715 99.6724 54.6466 99.6724 59.3907V166.155C99.6724 174.138 96.6039 180.875 90.4668 186.378C84.3298 191.881 76.8051 194.626 67.8991 194.626H28.1671C22.8735 194.626 20.2207 192.251 20.2207 187.507C20.2207 182.762 22.8674 180.387 28.1671 180.387H67.8868C72.3001 180.387 76.0533 179.005 79.1402 176.235C82.227 173.472 83.7735 170.109 83.7735 166.155V137.684H83.7796Z" stroke="black" stroke-opacity="0.2" stroke-width="14.17" stroke-miterlimit="10"/>
<path d="M83.7796 137.684H44.0537C28.9678 137.684 17.5311 131.793 9.74976 119.997C6.13721 114.679 4.33398 108.714 4.33398 102.094V59.3907C4.33398 54.6466 6.98075 52.2715 12.2804 52.2715C17.58 52.2715 20.2268 54.6466 20.2268 59.3907V102.094C20.2268 107.992 22.5557 113.026 27.2074 117.19C31.8591 121.36 37.4766 123.446 44.0599 123.446H83.7796V59.3907C83.7796 54.6466 86.4264 52.2715 91.726 52.2715C97.0257 52.2715 99.6724 54.6466 99.6724 59.3907V166.155C99.6724 174.138 96.6039 180.875 90.4668 186.378C84.3298 191.881 76.8051 194.626 67.8991 194.626H28.1671C22.8735 194.626 20.2207 192.251 20.2207 187.507C20.2207 182.762 22.8674 180.387 28.1671 180.387H67.8868C72.3001 180.387 76.0533 179.005 79.1402 176.235C82.227 173.472 83.7735 170.109 83.7735 166.155V137.684H83.7796Z" stroke="black" stroke-opacity="0.2" stroke-width="14.17" stroke-miterlimit="10"/>
<path d="M83.7796 137.684H44.0537C28.9678 137.684 17.5311 131.793 9.74976 119.997C6.13721 114.679 4.33398 108.714 4.33398 102.094V59.3907C4.33398 54.6466 6.98075 52.2715 12.2804 52.2715C17.58 52.2715 20.2268 54.6466 20.2268 59.3907V102.094C20.2268 107.992 22.5557 113.026 27.2074 117.19C31.8591 121.36 37.4766 123.446 44.0599 123.446H83.7796V59.3907C83.7796 54.6466 86.4264 52.2715 91.726 52.2715C97.0257 52.2715 99.6724 54.6466 99.6724 59.3907V166.155C99.6724 174.138 96.6039 180.875 90.4668 186.378C84.3298 191.881 76.8051 194.626 67.8991 194.626H28.1671C22.8735 194.626 20.2207 192.251 20.2207 187.507C20.2207 182.762 22.8674 180.387 28.1671 180.387H67.8868C72.3001 180.387 76.0533 179.005 79.1402 176.235C82.227 173.472 83.7735 170.109 83.7735 166.155V137.684H83.7796Z" stroke="black" stroke-opacity="0.2" stroke-width="14.17" stroke-miterlimit="10"/>
<path d="M57.4954 75.1532C54.9954 78.466 50.0686 78.5031 47.5196 75.2272C41.3887 67.3677 31.364 54.0175 26.9996 45.8001C23.6621 39.5137 21.4494 33.0237 22.678 25.7194C24.7074 13.6524 33.7907 3.59659 45.7531 1.04254C62.4039 -2.51709 77.1414 7.26727 81.4569 22.3633C83.4007 29.1556 82.6977 35.7443 79.6353 42.1973C75.711 50.464 64.2682 66.1955 57.5015 75.147L57.4954 75.1532ZM51.4134 20.0745C46.1626 20.6421 42.0122 25.0778 41.9877 30.4018C41.9633 36.2317 46.7495 41.2102 52.3853 41.2226C58.7791 41.2411 64.2499 34.7943 62.6484 28.1377C61.432 23.0789 56.5358 19.5193 51.4134 20.0684V20.0745Z" fill="#282A04"/>
<path d="M57.4954 75.1532C54.9954 78.466 50.0686 78.5031 47.5196 75.2272C41.3887 67.3677 31.364 54.0175 26.9996 45.8001C23.6621 39.5137 21.4494 33.0237 22.678 25.7194C24.7074 13.6524 33.7907 3.59659 45.7531 1.04254C62.4039 -2.51709 77.1414 7.26727 81.4569 22.3633C83.4007 29.1556 82.6977 35.7443 79.6353 42.1973C75.711 50.464 64.2682 66.1955 57.5015 75.147L57.4954 75.1532ZM51.4134 20.0745C46.1626 20.6421 42.0122 25.0778 41.9877 30.4018C41.9633 36.2317 46.7495 41.2102 52.3853 41.2226C58.7791 41.2411 64.2499 34.7943 62.6484 28.1377C61.432 23.0789 56.5358 19.5193 51.4134 20.0684V20.0745Z" fill="black" fill-opacity="0.2"/>
<path d="M57.4954 75.1532C54.9954 78.466 50.0686 78.5031 47.5196 75.2272C41.3887 67.3677 31.364 54.0175 26.9996 45.8001C23.6621 39.5137 21.4494 33.0237 22.678 25.7194C24.7074 13.6524 33.7907 3.59659 45.7531 1.04254C62.4039 -2.51709 77.1414 7.26727 81.4569 22.3633C83.4007 29.1556 82.6977 35.7443 79.6353 42.1973C75.711 50.464 64.2682 66.1955 57.5015 75.147L57.4954 75.1532ZM51.4134 20.0745C46.1626 20.6421 42.0122 25.0778 41.9877 30.4018C41.9633 36.2317 46.7495 41.2102 52.3853 41.2226C58.7791 41.2411 64.2499 34.7943 62.6484 28.1377C61.432 23.0789 56.5358 19.5193 51.4134 20.0684V20.0745Z" fill="black" fill-opacity="0.2"/>
<path d="M57.4954 75.1532C54.9954 78.466 50.0686 78.5031 47.5196 75.2272C41.3887 67.3677 31.364 54.0175 26.9996 45.8001C23.6621 39.5137 21.4494 33.0237 22.678 25.7194C24.7074 13.6524 33.7907 3.59659 45.7531 1.04254C62.4039 -2.51709 77.1414 7.26727 81.4569 22.3633C83.4007 29.1556 82.6977 35.7443 79.6353 42.1973C75.711 50.464 64.2682 66.1955 57.5015 75.147L57.4954 75.1532ZM51.4134 20.0745C46.1626 20.6421 42.0122 25.0778 41.9877 30.4018C41.9633 36.2317 46.7495 41.2102 52.3853 41.2226C58.7791 41.2411 64.2499 34.7943 62.6484 28.1377C61.432 23.0789 56.5358 19.5193 51.4134 20.0684V20.0745Z" fill="black" fill-opacity="0.2"/>
<path d="M57.4954 75.1532C54.9954 78.466 50.0686 78.5031 47.5196 75.2272C41.3887 67.3677 31.364 54.0175 26.9996 45.8001C23.6621 39.5137 21.4494 33.0237 22.678 25.7194C24.7074 13.6524 33.7907 3.59659 45.7531 1.04254C62.4039 -2.51709 77.1414 7.26727 81.4569 22.3633C83.4007 29.1556 82.6977 35.7443 79.6353 42.1973C75.711 50.464 64.2682 66.1955 57.5015 75.147L57.4954 75.1532ZM51.4134 20.0745C46.1626 20.6421 42.0122 25.0778 41.9877 30.4018C41.9633 36.2317 46.7495 41.2102 52.3853 41.2226C58.7791 41.2411 64.2499 34.7943 62.6484 28.1377C61.432 23.0789 56.5358 19.5193 51.4134 20.0684V20.0745Z" fill="black" fill-opacity="0.2"/>
<path d="M57.4954 75.1532C54.9954 78.466 50.0686 78.5031 47.5196 75.2272C41.3887 67.3677 31.364 54.0175 26.9996 45.8001C23.6621 39.5137 21.4494 33.0237 22.678 25.7194C24.7074 13.6524 33.7907 3.59659 45.7531 1.04254C62.4039 -2.51709 77.1414 7.26727 81.4569 22.3633C83.4007 29.1556 82.6977 35.7443 79.6353 42.1973C75.711 50.464 64.2682 66.1955 57.5015 75.147L57.4954 75.1532ZM51.4134 20.0745C46.1626 20.6421 42.0122 25.0778 41.9877 30.4018C41.9633 36.2317 46.7495 41.2102 52.3853 41.2226C58.7791 41.2411 64.2499 34.7943 62.6484 28.1377C61.432 23.0789 56.5358 19.5193 51.4134 20.0684V20.0745Z" stroke="#282A04" stroke-miterlimit="10"/>
<path d="M57.4954 75.1532C54.9954 78.466 50.0686 78.5031 47.5196 75.2272C41.3887 67.3677 31.364 54.0175 26.9996 45.8001C23.6621 39.5137 21.4494 33.0237 22.678 25.7194C24.7074 13.6524 33.7907 3.59659 45.7531 1.04254C62.4039 -2.51709 77.1414 7.26727 81.4569 22.3633C83.4007 29.1556 82.6977 35.7443 79.6353 42.1973C75.711 50.464 64.2682 66.1955 57.5015 75.147L57.4954 75.1532ZM51.4134 20.0745C46.1626 20.6421 42.0122 25.0778 41.9877 30.4018C41.9633 36.2317 46.7495 41.2102 52.3853 41.2226C58.7791 41.2411 64.2499 34.7943 62.6484 28.1377C61.432 23.0789 56.5358 19.5193 51.4134 20.0684V20.0745Z" stroke="black" stroke-opacity="0.2" stroke-miterlimit="10"/>
<path d="M57.4954 75.1532C54.9954 78.466 50.0686 78.5031 47.5196 75.2272C41.3887 67.3677 31.364 54.0175 26.9996 45.8001C23.6621 39.5137 21.4494 33.0237 22.678 25.7194C24.7074 13.6524 33.7907 3.59659 45.7531 1.04254C62.4039 -2.51709 77.1414 7.26727 81.4569 22.3633C83.4007 29.1556 82.6977 35.7443 79.6353 42.1973C75.711 50.464 64.2682 66.1955 57.5015 75.147L57.4954 75.1532ZM51.4134 20.0745C46.1626 20.6421 42.0122 25.0778 41.9877 30.4018C41.9633 36.2317 46.7495 41.2102 52.3853 41.2226C58.7791 41.2411 64.2499 34.7943 62.6484 28.1377C61.432 23.0789 56.5358 19.5193 51.4134 20.0684V20.0745Z" stroke="black" stroke-opacity="0.2" stroke-miterlimit="10"/>
<path d="M57.4954 75.1532C54.9954 78.466 50.0686 78.5031 47.5196 75.2272C41.3887 67.3677 31.364 54.0175 26.9996 45.8001C23.6621 39.5137 21.4494 33.0237 22.678 25.7194C24.7074 13.6524 33.7907 3.59659 45.7531 1.04254C62.4039 -2.51709 77.1414 7.26727 81.4569 22.3633C83.4007 29.1556 82.6977 35.7443 79.6353 42.1973C75.711 50.464 64.2682 66.1955 57.5015 75.147L57.4954 75.1532ZM51.4134 20.0745C46.1626 20.6421 42.0122 25.0778 41.9877 30.4018C41.9633 36.2317 46.7495 41.2102 52.3853 41.2226C58.7791 41.2411 64.2499 34.7943 62.6484 28.1377C61.432 23.0789 56.5358 19.5193 51.4134 20.0684V20.0745Z" stroke="black" stroke-opacity="0.2" stroke-miterlimit="10"/>
<path d="M57.4954 75.1532C54.9954 78.466 50.0686 78.5031 47.5196 75.2272C41.3887 67.3677 31.364 54.0175 26.9996 45.8001C23.6621 39.5137 21.4494 33.0237 22.678 25.7194C24.7074 13.6524 33.7907 3.59659 45.7531 1.04254C62.4039 -2.51709 77.1414 7.26727 81.4569 22.3633C83.4007 29.1556 82.6977 35.7443 79.6353 42.1973C75.711 50.464 64.2682 66.1955 57.5015 75.147L57.4954 75.1532ZM51.4134 20.0745C46.1626 20.6421 42.0122 25.0778 41.9877 30.4018C41.9633 36.2317 46.7495 41.2102 52.3853 41.2226C58.7791 41.2411 64.2499 34.7943 62.6484 28.1377C61.432 23.0789 56.5358 19.5193 51.4134 20.0684V20.0745Z" stroke="black" stroke-opacity="0.2" stroke-miterlimit="10"/>
</g>
<defs>
<clipPath id="clip0_362_561">
<rect width="104" height="199" fill="white"/>
</clipPath>
</defs>
</svg>
