<svg width="45" height="46" viewBox="0 0 45 46" fill="none" xmlns="http://www.w3.org/2000/svg">
<mask id="mask0_362_479" style="mask-type:alpha" maskUnits="userSpaceOnUse" x="0" y="0" width="45" height="46">
<g clip-path="url(#clip0_362_479)">
<path d="M34.2807 26.8371C35.2957 25.7306 36.2459 24.6647 37.232 23.6366C37.7884 23.056 38.3448 22.4377 39.0114 22.0125C40.485 21.0725 42.4199 21.3984 43.6718 22.6798C44.8837 23.9205 45.1867 25.8943 44.2144 27.3631C43.0121 29.1774 41.6776 30.9008 40.3941 32.6591C39.6283 33.7069 38.8351 34.7322 38.0817 35.7898C36.122 38.5413 33.464 39.8646 30.1381 39.8604C25.479 39.8562 20.82 39.8604 16.1609 39.8604H15.3263C15.2547 41.8929 14.2025 43.1043 12.5017 43.8499C11.809 44.1535 11.1548 44.541 10.4745 44.8753C9.57927 45.3131 8.94163 45.1061 8.48853 44.1898C5.95311 39.0519 3.4232 33.9139 0.900177 28.7731C0.540729 28.0401 0.601326 27.3589 1.19627 27.033C2.47982 26.3279 3.78678 25.6257 5.15985 25.1445C5.80851 24.9165 6.64309 25.1291 7.36612 25.2774C7.7297 25.3529 7.94179 25.3404 8.21309 25.1026C9.20055 24.2353 10.1508 23.305 11.2209 22.5553C14.5289 20.2374 18.8671 20.4234 21.9548 23.0113C22.8913 23.796 23.8346 24.2059 25.0714 24.1276C26.6262 24.0296 28.1935 24.1569 29.7511 24.0912C31.8362 24.0031 33.4144 24.7151 34.2807 26.8399V26.8371ZM9.61784 27.3211C9.64813 27.461 9.64951 27.5338 9.67843 27.5925C11.1989 30.6938 12.7138 33.7978 14.2631 36.8837C14.3595 37.0753 14.7245 37.2306 14.9655 37.232C20.0818 37.2516 25.1981 37.2641 30.3144 37.239C32.5798 37.2278 34.4473 36.3213 35.8259 34.4581C36.5007 33.546 37.1742 32.6326 37.8476 31.7191C39.1807 29.9118 40.5249 28.1129 41.8429 26.2944C42.5081 25.3753 42.0729 24.1723 41.0303 24.1541C40.602 24.1471 40.0663 24.4535 39.7509 24.785C37.9812 26.6427 36.2611 28.5507 34.5286 30.4462C33.7904 31.2547 32.942 31.908 31.8224 31.9247C29.1851 31.9653 26.5463 31.9499 23.9076 31.9401C23.2342 31.9373 22.7439 31.4295 22.6985 30.7609C22.6503 30.0769 23.0441 29.5257 23.7093 29.3942C23.9765 29.3411 24.2561 29.3411 24.5301 29.3397C26.5037 29.3341 28.4758 29.3481 30.4493 29.3299C31.3307 29.3215 31.8279 28.8221 31.8238 28.0289C31.8196 27.24 31.3087 26.7686 30.4287 26.7616C29.4192 26.7546 28.4097 26.7602 27.4002 26.7588C26.6896 26.7588 25.9721 26.7028 25.2669 26.77C23.3457 26.9518 21.7744 26.3126 20.2952 25.0508C18.0559 23.1386 14.9641 23.0518 12.6463 24.7389C11.5707 25.5208 10.6122 26.4678 9.62059 27.3211H9.61784ZM10.3119 42.009C10.8738 41.7237 11.3476 41.4943 11.8117 41.2467C12.7275 40.7585 12.9286 40.1346 12.4673 39.1736C12.0266 38.2545 11.5707 37.3425 11.1204 36.4276C9.8313 33.809 8.545 31.1889 7.25043 28.5731C6.8359 27.7366 6.274 27.4456 5.53995 27.7408C4.92986 27.9856 4.35143 28.3171 3.72343 28.6291C5.92832 33.1082 8.1043 37.5285 10.3106 42.009H10.3119Z" fill="black"/>
<path d="M20.2911 9.28573C18.0945 6.71464 18.6633 3.63158 20.455 1.85085C22.3734 -0.0571828 25.2752 -0.204062 27.3341 1.50113C29.6395 3.40916 29.8668 6.22365 28.0131 9.13745C28.8325 9.99914 29.7098 10.7825 30.4204 11.6973C31.8114 13.4893 31.9808 15.6323 31.7825 17.8005C31.7494 18.1614 31.2343 18.5237 30.8721 18.7867C30.6807 18.9252 30.3392 18.8664 30.0651 18.8664C26.074 18.8706 22.0815 18.8706 18.0904 18.8678C16.6636 18.8678 16.2821 18.4454 16.2504 16.992C16.1788 13.6739 17.4458 11.0832 20.2911 9.28573ZM18.9125 16.2198H29.1727C29.4633 13.7495 27.111 11.1182 24.6155 10.928C20.9839 10.6524 18.7225 13.8935 18.9125 16.2198ZM21.4755 5.64872C21.4755 7.07834 22.7219 8.30933 24.1404 8.28135C25.4928 8.25478 26.6855 7.03918 26.7061 5.66691C26.7281 4.22889 25.5038 2.96993 24.0894 2.97412C22.6585 2.97832 21.4755 4.18832 21.4769 5.64872H21.4755Z" fill="black"/>
</g>
</mask>
<g mask="url(#mask0_362_479)">
<rect x="-64.0884" y="-49.2257" width="199.929" height="177.203" fill="#282A04"/>
<rect x="-64.0884" y="-49.2257" width="199.929" height="177.203" fill="black" fill-opacity="0.2"/>
<rect x="-64.0884" y="-49.2257" width="199.929" height="177.203" fill="black" fill-opacity="0.2"/>
<rect x="-64.0884" y="-49.2257" width="199.929" height="177.203" fill="black" fill-opacity="0.2"/>
<rect x="-64.0884" y="-49.2257" width="199.929" height="177.203" fill="black" fill-opacity="0.2"/>
</g>
<defs>
<clipPath id="clip0_362_479">
<rect width="44.1158" height="44.7771" fill="white" transform="translate(0.677246 0.314941)"/>
</clipPath>
</defs>
</svg>
