<svg width="26" height="22" viewBox="0 0 26 22" fill="none" xmlns="http://www.w3.org/2000/svg">
<path d="M22.6489 5.99787C22.6648 6.21797 22.6648 6.43813 22.6648 6.65823C22.6648 13.3717 17.5094 21.1072 8.08677 21.1072C5.18384 21.1072 2.48716 20.2738 0.21875 18.8274C0.631201 18.8746 1.02773 18.8903 1.45606 18.8903C3.85132 18.8903 6.0563 18.0885 7.81709 16.7206C5.56455 16.6734 3.67686 15.2113 3.02647 13.1988C3.34375 13.2459 3.66099 13.2774 3.99414 13.2774C4.45415 13.2774 4.91421 13.2145 5.34248 13.1045C2.99478 12.6327 1.23394 10.5888 1.23394 8.12041V8.05755C1.91602 8.43489 2.70923 8.67072 3.5499 8.70213C2.16982 7.79021 1.26567 6.2337 1.26567 4.47277C1.26567 3.52944 1.51943 2.66471 1.96362 1.91002C4.48584 4.99162 8.2771 7.00407 12.5283 7.22422C12.449 6.84688 12.4014 6.45386 12.4014 6.06078C12.4014 3.26215 14.6857 0.982422 17.5252 0.982422C19.0004 0.982422 20.3329 1.5956 21.2688 2.58611C22.4268 2.36601 23.5372 1.94148 24.5207 1.35976C24.1399 2.53898 23.331 3.52949 22.2682 4.15835C23.2993 4.04834 24.2986 3.76528 25.2187 3.37225C24.5208 4.37845 23.6483 5.2746 22.6489 5.99787Z" fill="black"/>
</svg>
